<mxfile host="Electron" modified="2024-05-04T11:20:17.057Z" agent="Mozilla/5.0 (Windows NT 10.0; Win64; x64) AppleWebKit/537.36 (KHTML, like Gecko) draw.io/23.1.5 Chrome/120.0.6099.109 Electron/28.1.0 Safari/537.36" etag="cFjioym0yKp2REKBl_Y8" version="23.1.5" type="device">
  <diagram name="Strona-1" id="bfP1ETq4kF4yZmUNnERL">
    <mxGraphModel dx="989" dy="660" grid="1" gridSize="10" guides="1" tooltips="1" connect="1" arrows="1" fold="1" page="1" pageScale="1" pageWidth="583" pageHeight="413" math="0" shadow="0">
      <root>
        <mxCell id="0" />
        <mxCell id="1" parent="0" />
        <mxCell id="9Za2CxRRPPvDsUSl86Xe-1" value="" style="endArrow=classic;html=1;rounded=0;strokeWidth=3;" edge="1" parent="1">
          <mxGeometry width="50" height="50" relative="1" as="geometry">
            <mxPoint x="151" y="370.63" as="sourcePoint" />
            <mxPoint x="152" y="20" as="targetPoint" />
          </mxGeometry>
        </mxCell>
        <mxCell id="9Za2CxRRPPvDsUSl86Xe-2" value="Częstotliwość [Hz]" style="endArrow=classic;html=1;rounded=0;strokeWidth=3;" edge="1" parent="1">
          <mxGeometry x="-0.0094" y="-39" width="50" height="50" relative="1" as="geometry">
            <mxPoint x="132" y="340.63" as="sourcePoint" />
            <mxPoint x="451" y="340.63" as="targetPoint" />
            <mxPoint as="offset" />
          </mxGeometry>
        </mxCell>
        <mxCell id="9Za2CxRRPPvDsUSl86Xe-3" value="10" style="endArrow=none;html=1;rounded=0;" edge="1" parent="1">
          <mxGeometry x="-1" y="-20" width="50" height="50" relative="1" as="geometry">
            <mxPoint x="151" y="310.63" as="sourcePoint" />
            <mxPoint x="431" y="310.63" as="targetPoint" />
            <mxPoint x="-20" y="-20" as="offset" />
          </mxGeometry>
        </mxCell>
        <mxCell id="9Za2CxRRPPvDsUSl86Xe-5" value="30" style="endArrow=none;html=1;rounded=0;" edge="1" parent="1">
          <mxGeometry x="-1" y="19" width="50" height="50" relative="1" as="geometry">
            <mxPoint x="151" y="270.63" as="sourcePoint" />
            <mxPoint x="431" y="270.63" as="targetPoint" />
            <mxPoint x="-19" y="18" as="offset" />
          </mxGeometry>
        </mxCell>
        <mxCell id="9Za2CxRRPPvDsUSl86Xe-6" value="50" style="endArrow=none;html=1;rounded=0;" edge="1" parent="1">
          <mxGeometry x="-1" y="19" width="50" height="50" relative="1" as="geometry">
            <mxPoint x="151" y="230.63" as="sourcePoint" />
            <mxPoint x="431" y="230.63" as="targetPoint" />
            <mxPoint x="-19" y="18" as="offset" />
          </mxGeometry>
        </mxCell>
        <mxCell id="9Za2CxRRPPvDsUSl86Xe-7" value="70" style="endArrow=none;html=1;rounded=0;" edge="1" parent="1">
          <mxGeometry x="-1" y="-19" width="50" height="50" relative="1" as="geometry">
            <mxPoint x="151" y="190.63" as="sourcePoint" />
            <mxPoint x="431" y="190.63" as="targetPoint" />
            <mxPoint x="-19" y="-19" as="offset" />
          </mxGeometry>
        </mxCell>
        <mxCell id="9Za2CxRRPPvDsUSl86Xe-8" value="90" style="endArrow=none;html=1;rounded=0;" edge="1" parent="1">
          <mxGeometry x="-1" y="19" width="50" height="50" relative="1" as="geometry">
            <mxPoint x="151" y="150.63" as="sourcePoint" />
            <mxPoint x="431" y="150.63" as="targetPoint" />
            <mxPoint x="-19" y="18" as="offset" />
          </mxGeometry>
        </mxCell>
        <mxCell id="9Za2CxRRPPvDsUSl86Xe-9" value="110" style="endArrow=none;html=1;rounded=0;" edge="1" parent="1">
          <mxGeometry x="-1" y="19" width="50" height="50" relative="1" as="geometry">
            <mxPoint x="151" y="110.63" as="sourcePoint" />
            <mxPoint x="431" y="110.63" as="targetPoint" />
            <mxPoint x="-19" y="18" as="offset" />
          </mxGeometry>
        </mxCell>
        <mxCell id="9Za2CxRRPPvDsUSl86Xe-10" value="150" style="endArrow=none;html=1;rounded=0;" edge="1" parent="1">
          <mxGeometry x="-1" y="-20" width="50" height="50" relative="1" as="geometry">
            <mxPoint x="151" y="30.000000000000004" as="sourcePoint" />
            <mxPoint x="431" y="30.000000000000004" as="targetPoint" />
            <mxPoint x="-20" y="-20" as="offset" />
          </mxGeometry>
        </mxCell>
        <mxCell id="9Za2CxRRPPvDsUSl86Xe-36" value="Poziom ciśnienia [dB]" style="edgeLabel;html=1;align=center;verticalAlign=middle;resizable=0;points=[];" vertex="1" connectable="0" parent="9Za2CxRRPPvDsUSl86Xe-10">
          <mxGeometry x="-0.5419" y="-3" relative="1" as="geometry">
            <mxPoint y="-13" as="offset" />
          </mxGeometry>
        </mxCell>
        <mxCell id="9Za2CxRRPPvDsUSl86Xe-11" value="20" style="endArrow=none;html=1;rounded=0;" edge="1" parent="1">
          <mxGeometry x="-1" y="-10" width="50" height="50" relative="1" as="geometry">
            <mxPoint x="191" y="350.63" as="sourcePoint" />
            <mxPoint x="192" y="30" as="targetPoint" />
            <mxPoint x="-10" y="10" as="offset" />
          </mxGeometry>
        </mxCell>
        <mxCell id="9Za2CxRRPPvDsUSl86Xe-12" value="" style="endArrow=none;html=1;rounded=0;" edge="1" parent="1">
          <mxGeometry width="50" height="50" relative="1" as="geometry">
            <mxPoint x="231" y="350.63" as="sourcePoint" />
            <mxPoint x="232" y="30" as="targetPoint" />
          </mxGeometry>
        </mxCell>
        <mxCell id="9Za2CxRRPPvDsUSl86Xe-13" value="" style="endArrow=none;html=1;rounded=0;" edge="1" parent="1">
          <mxGeometry width="50" height="50" relative="1" as="geometry">
            <mxPoint x="271" y="350.63" as="sourcePoint" />
            <mxPoint x="272" y="30" as="targetPoint" />
          </mxGeometry>
        </mxCell>
        <mxCell id="9Za2CxRRPPvDsUSl86Xe-14" value="200" style="endArrow=none;html=1;rounded=0;" edge="1" parent="1">
          <mxGeometry x="-1" y="41" width="50" height="50" relative="1" as="geometry">
            <mxPoint x="311" y="350.63" as="sourcePoint" />
            <mxPoint x="312" y="30" as="targetPoint" />
            <mxPoint x="1" y="10" as="offset" />
          </mxGeometry>
        </mxCell>
        <mxCell id="9Za2CxRRPPvDsUSl86Xe-16" value="" style="endArrow=none;html=1;rounded=0;" edge="1" parent="1">
          <mxGeometry width="50" height="50" relative="1" as="geometry">
            <mxPoint x="351" y="350.63" as="sourcePoint" />
            <mxPoint x="352" y="30" as="targetPoint" />
          </mxGeometry>
        </mxCell>
        <mxCell id="9Za2CxRRPPvDsUSl86Xe-17" value="20000" style="endArrow=none;html=1;rounded=0;" edge="1" parent="1">
          <mxGeometry x="-1" y="-42" width="50" height="50" relative="1" as="geometry">
            <mxPoint x="391" y="350.63" as="sourcePoint" />
            <mxPoint x="392" y="30" as="targetPoint" />
            <mxPoint x="-1" y="9" as="offset" />
          </mxGeometry>
        </mxCell>
        <mxCell id="9Za2CxRRPPvDsUSl86Xe-18" value="2000" style="endArrow=none;html=1;rounded=0;" edge="1" parent="1">
          <mxGeometry x="-1" y="81" width="50" height="50" relative="1" as="geometry">
            <mxPoint x="431" y="350.63" as="sourcePoint" />
            <mxPoint x="432" y="30" as="targetPoint" />
            <mxPoint x="1" y="10" as="offset" />
          </mxGeometry>
        </mxCell>
        <mxCell id="9Za2CxRRPPvDsUSl86Xe-27" value="130" style="endArrow=none;html=1;rounded=0;" edge="1" parent="1">
          <mxGeometry x="-1" y="-20" width="50" height="50" relative="1" as="geometry">
            <mxPoint x="152" y="70" as="sourcePoint" />
            <mxPoint x="432" y="70" as="targetPoint" />
            <mxPoint x="-20" y="-20" as="offset" />
          </mxGeometry>
        </mxCell>
        <mxCell id="9Za2CxRRPPvDsUSl86Xe-28" value="" style="endArrow=none;html=1;rounded=0;curved=1;strokeWidth=2;fillColor=#a20025;strokeColor=#6F0000;" edge="1" parent="1">
          <mxGeometry width="50" height="50" relative="1" as="geometry">
            <mxPoint x="170" y="80" as="sourcePoint" />
            <mxPoint x="170" y="80" as="targetPoint" />
            <Array as="points">
              <mxPoint x="180" y="240" />
              <mxPoint x="220" y="280" />
              <mxPoint x="370" y="380" />
              <mxPoint x="400" y="290" />
              <mxPoint x="420" y="270" />
              <mxPoint x="430" y="50" />
              <mxPoint x="390" y="60" />
              <mxPoint x="360" y="110" />
              <mxPoint x="320" y="80" />
              <mxPoint x="240" y="70" />
              <mxPoint x="190" y="50" />
            </Array>
          </mxGeometry>
        </mxCell>
        <mxCell id="9Za2CxRRPPvDsUSl86Xe-29" value="" style="endArrow=none;html=1;rounded=0;curved=1;fillColor=#60a917;strokeColor=#2D7600;strokeWidth=2;" edge="1" parent="1">
          <mxGeometry width="50" height="50" relative="1" as="geometry">
            <mxPoint x="330" y="300" as="sourcePoint" />
            <mxPoint x="330" y="300" as="targetPoint" />
            <Array as="points">
              <mxPoint x="290" y="290" />
              <mxPoint x="260" y="260" />
              <mxPoint x="230" y="210" />
              <mxPoint x="270" y="140" />
              <mxPoint x="330" y="150" />
              <mxPoint x="350" y="170" />
              <mxPoint x="380" y="180" />
              <mxPoint x="420" y="220" />
              <mxPoint x="400" y="280" />
              <mxPoint x="370" y="300" />
            </Array>
          </mxGeometry>
        </mxCell>
        <mxCell id="9Za2CxRRPPvDsUSl86Xe-30" value="" style="endArrow=none;html=1;rounded=1;curved=0;fillColor=#6a00ff;strokeColor=#3700CC;" edge="1" parent="1">
          <mxGeometry width="50" height="50" relative="1" as="geometry">
            <mxPoint x="270" y="230" as="sourcePoint" />
            <mxPoint x="270" y="230" as="targetPoint" />
            <Array as="points">
              <mxPoint x="290" y="210" />
              <mxPoint x="350" y="200" />
              <mxPoint x="380" y="220" />
              <mxPoint x="380" y="280" />
              <mxPoint x="360" y="280" />
              <mxPoint x="360" y="270" />
              <mxPoint x="340" y="260" />
              <mxPoint x="300" y="260" />
            </Array>
          </mxGeometry>
        </mxCell>
        <mxCell id="9Za2CxRRPPvDsUSl86Xe-31" value="&lt;font color=&quot;#1e00ff&quot;&gt;&lt;b&gt;Mowa&lt;/b&gt;&lt;/font&gt;" style="text;html=1;align=center;verticalAlign=middle;whiteSpace=wrap;rounded=0;" vertex="1" parent="1">
          <mxGeometry x="300" y="230" width="60" height="30" as="geometry" />
        </mxCell>
        <mxCell id="9Za2CxRRPPvDsUSl86Xe-34" value="&lt;b&gt;&lt;font color=&quot;#660000&quot;&gt;Zakres slyszalnych dźwięków&lt;/font&gt;&lt;/b&gt;" style="text;html=1;align=center;verticalAlign=middle;whiteSpace=wrap;rounded=0;" vertex="1" parent="1">
          <mxGeometry x="172" y="90" width="120" height="30" as="geometry" />
        </mxCell>
        <mxCell id="9Za2CxRRPPvDsUSl86Xe-35" value="&lt;b&gt;&lt;font color=&quot;#10fe6b&quot;&gt;Muzyka&lt;/font&gt;&lt;/b&gt;" style="text;html=1;align=center;verticalAlign=middle;whiteSpace=wrap;rounded=0;" vertex="1" parent="1">
          <mxGeometry x="272" y="170" width="60" height="30" as="geometry" />
        </mxCell>
      </root>
    </mxGraphModel>
  </diagram>
</mxfile>
